<svg id="Layer_1" data-name="Layer 1" xmlns="http://www.w3.org/2000/svg" viewBox="0 0 14.04 19"><title>Address Location</title><g id="pin"><g id="Group_13" data-name="Group 13"><g id="Group_12" data-name="Group 12"><path id="Path_8" data-name="Path 8" d="M856,977a7,7,0,0,0-7,7,8.1,8.1,0,0,0,.6,2.7,11.32,11.32,0,0,0,.81,1.52l4.81,7.29a.91.91,0,0,0,1.6,0l4.81-7.29a11.27,11.27,0,0,0,.81-1.52,8.1,8.1,0,0,0,.6-2.7A7,7,0,0,0,856,977Zm5.66,9.4a10.37,10.37,0,0,1-.74,1.38l-4.81,7.29c-.1.14-.12.14-.22,0l-4.81-7.29a10.38,10.38,0,0,1-.74-1.38,7.35,7.35,0,0,1-.53-2.38,6.19,6.19,0,0,1,12.39,0,7.36,7.36,0,0,1-.53,2.38Z" transform="translate(-849 -977)"/><path id="Path_9" data-name="Path 9" d="M856,980.3a3.72,3.72,0,1,0,3.72,3.72A3.72,3.72,0,0,0,856,980.3Zm0,6.61a2.89,2.89,0,1,1,2.89-2.89h0A2.89,2.89,0,0,1,856,986.91Z" transform="translate(-849 -977)"/></g></g></g></svg>