<svg id="Layer_1" data-name="Layer 1" xmlns="http://www.w3.org/2000/svg" viewBox="0 0 15.42 19"><title>Appoinment</title><g id="attached-file"><g id="Group_19" data-name="Group 19"><g id="Group_18" data-name="Group 18"><path id="Path_17" data-name="Path 17" d="M841.87,976.79H835.2a2.35,2.35,0,0,0-4.56,0h-3.09a.56.56,0,0,0-.56.56v16.1a.56.56,0,0,0,.56.56h14.31a.56.56,0,0,0,.56-.56v-16.1A.56.56,0,0,0,841.87,976.79Zm-8.94-.67a1.23,1.23,0,0,1,1.1.67h-2.2a1.23,1.23,0,0,1,1.1-.68Zm8.39,16.77h-13.2v-15h2.46v3a2.35,2.35,0,1,0,4.69,0v-.6a.56.56,0,0,0-1.11,0v.6a1.23,1.23,0,0,1-2.46,0v-3h9.62Z" transform="translate(-827 -975)"/></g></g><g id="Group_21" data-name="Group 21"><g id="Group_20" data-name="Group 20"><path id="Path_18" data-name="Path 18" d="M838.29,989.31h-7.15a.56.56,0,0,0,0,1.11h7.15a.56.56,0,1,0,0-1.11Z" transform="translate(-827 -975)"/></g></g><g id="Group_23" data-name="Group 23"><g id="Group_22" data-name="Group 22"><path id="Path_19" data-name="Path 19" d="M838.29,985.73h-7.15a.56.56,0,0,0,0,1.11h7.15a.56.56,0,0,0,0-1.11Z" transform="translate(-827 -975)"/></g></g></g></svg>