<svg id="Layer_1" data-name="Layer 1" xmlns="http://www.w3.org/2000/svg" viewBox="0 0 18.91 19"><title>change password</title><g id="key"><path id="Path_15" data-name="Path 15" d="M831.21,965.4a5.48,5.48,0,0,0,7.74,0,5.42,5.42,0,0,0,1.57-3.25,5.51,5.51,0,0,0-.55-3.08l8.55-8.55-2.44-2.44-1,1L844,948l-2.31,2.31,1.08,1.08-.79.79-1.08-1.08-2.31,2.31,1.08,1.08-2.14,2.13a5.51,5.51,0,0,0-3.07-.55,5.42,5.42,0,0,0-3.25,1.57A5.48,5.48,0,0,0,831.21,965.4Zm.79-7a4.35,4.35,0,0,1,5.35-.64l.37.23,3.53-3.53-1.08-1.08.74-.74,1.08,1.08,2.37-2.37-1.08-1.08.74-.74,1.08,1.08,1-1,.86.86-8.37,8.37.23.37a4.36,4.36,0,1,1-6.81-.82Z" transform="translate(-829.61 -948)"/><path id="Path_16" data-name="Path 16" d="M835.32,963.87a1.82,1.82,0,0,0-2.58-2.58h0a1.82,1.82,0,0,0,2.58,2.58Zm-1.79-1.79a.71.71,0,1,1,0,1h0a.71.71,0,0,1,0-1Z" transform="translate(-829.61 -948)"/></g></svg>