<svg id="Layer_1" data-name="Layer 1" xmlns="http://www.w3.org/2000/svg" viewBox="0 0 15 15.64"><defs><style>.cls-1{fill:#cecece;}</style></defs><title>check account</title><g id="refresh"><g id="Group_6" data-name="Group 6"><path id="Path_3" data-name="Path 3" class="cls-1" d="M737.9,1134.58a.58.58,0,0,0-1.16.18h0a6.42,6.42,0,1,1-1.59-3.26l-2.58.86a.58.58,0,0,0-.37.74h0a.58.58,0,0,0,.73.37h0l3.5-1.17a.58.58,0,0,0,.4-.55v-3.5a.58.58,0,0,0-1.17,0v2.13a7.5,7.5,0,1,0,2.22,4.19Z" transform="translate(-723 -1127.68)"/></g></g></svg>