<svg xmlns="http://www.w3.org/2000/svg" viewBox="0 0 84.04 58.76"><defs><style>.cls-1{isolation:isolate;}.cls-2{fill:#a9a9ab;}.cls-19,.cls-2,.cls-22{mix-blend-mode:multiply;}.cls-3{fill:#9c480c;}.cls-4{fill:#d9af6a;}.cls-5{fill:#b76f3f;}.cls-6{fill:#a45823;}.cls-7{fill:#b3a4ad;}.cls-8{fill:#b58847;}.cls-9{fill:#d6d6d6;}.cls-10{fill:#8c4320;}.cls-11{fill:#fefefe;}.cls-12{fill:#8b8b8b;}.cls-13{fill:#6f6f6f;}.cls-14{fill:#8e8e8e;}.cls-15{fill:#e8c583;}.cls-16{fill:#efd995;}.cls-17{fill:#9f5939;}.cls-18{fill:#e5bc71;}.cls-19{fill:#d69985;}.cls-20{fill:#fde697;}.cls-21{fill:#d19f66;}.cls-22{fill:#b59fa6;}</style></defs><title>Empty Box</title><g class="cls-1"><g id="Layer_1" data-name="Layer 1"><polygon class="cls-2" points="70.56 49.72 84.03 42.09 61.68 28.52 37.49 17.43 36.71 58.76 70.56 49.72"/><polygon class="cls-3" points="63.44 15.96 36.71 0.52 73.42 17.72 73.14 18.18 63.44 15.96"/><polygon class="cls-4" points="9.97 16.05 36.71 0.62 0 17.72 0 18.34 9.97 16.05"/><polygon class="cls-5" points="36.71 58.76 63.44 43.33 63.44 15.44 36.71 30.87 36.71 58.76"/><polygon class="cls-6" points="63.44 15.44 63.44 43.33 36.71 58.76 62.66 42.89 63.44 15.44"/><polygon class="cls-3" points="52.21 49.9 52.21 21.92 47.96 24.37 47.96 52.59 52.21 49.9"/><polygon class="cls-7" points="52.57 49.73 52.57 21.75 48.32 24.2 48.32 52.42 52.57 49.73"/><polygon class="cls-4" points="36.71 58.76 9.98 43.33 9.98 15.44 36.71 30.87 36.71 58.76"/><polygon class="cls-8" points="36.71 58.76 9.98 43.33 9.98 42.85 36.71 58.28 36.71 58.76"/><polygon class="cls-3" points="35.12 53.45 27.51 49.04 27.51 42.68 34.98 46.68 35.12 47.08 35.12 53.45"/><polygon class="cls-3" points="20.2 49.22 20.2 21.33 24.78 23.98 24.78 51.86 20.2 49.22"/><polygon class="cls-9" points="20.02 49.32 20.02 21.23 24.6 23.87 24.6 51.96 20.02 49.32"/><path class="cls-10" d="M141.43,57.45l6.21-3.59V63l-6.21,3.59Zm5.64-2.6L142,57.78V65.6l5.07-2.93Z" transform="translate(-86.03 -35.63)"/><polygon class="cls-10" points="59.68 26.51 57.57 27.73 57.57 25.23 59.68 24.01 59.68 26.51"/><polygon class="cls-10" points="60.71 23.43 56.54 25.84 58.62 21.48 60.71 23.43"/><polygon class="cls-11" points="34.83 46.8 27.21 42.4 27.37 42.28 34.98 46.68 34.83 46.8"/><polygon class="cls-12" points="34.83 53.16 34.83 46.8 34.98 46.68 34.98 53.04 34.83 53.16"/><polygon class="cls-9" points="34.83 53.16 27.21 48.76 27.21 42.4 34.83 46.8 34.83 53.16"/><polygon class="cls-13" points="34.4 47.66 27.64 43.76 27.64 43.35 34.4 47.26 34.4 47.66"/><polygon class="cls-14" points="31.6 47.83 27.64 45.54 27.64 45.14 31.6 47.42 31.6 47.83"/><polygon class="cls-14" points="34.37 52.11 32.31 50.92 32.31 47.49 34.37 48.69 34.37 52.11"/><polygon class="cls-14" points="31.6 48.7 27.64 46.42 27.64 46.02 31.6 48.3 31.6 48.7"/><polygon class="cls-14" points="31.6 49.58 27.64 47.3 27.64 46.89 31.6 49.17 31.6 49.58"/><polygon class="cls-14" points="31.6 50.45 27.64 48.17 27.64 47.77 31.6 50.05 31.6 50.45"/><polygon class="cls-4" points="63.44 15.44 36.71 0 46.68 2.28 73.42 17.72 63.44 15.44"/><polygon class="cls-15" points="9.97 15.44 36.71 0 26.73 2.28 0 17.72 9.97 15.44"/><polygon class="cls-16" points="36.71 30.87 63.44 15.44 36.71 0 9.97 15.44 36.71 30.87"/><polygon class="cls-17" points="12.26 15.43 34.86 28.49 36.71 29.55 38.56 28.49 61.16 15.43 36.71 1.32 12.26 15.43"/><polygon class="cls-4" points="42.94 43.18 69.68 27.75 69.92 27.22 36.71 30.87 36.71 31.76 42.94 43.18"/><polygon class="cls-18" points="43.18 42.65 69.92 27.22 63.44 15.44 36.71 30.87 43.18 42.65"/><polygon class="cls-19" points="9.97 32.33 31.6 44.54 36.71 35.09 36.71 31.76 9.98 29.04 9.97 32.33"/><polygon class="cls-5" points="30.53 42.97 3.79 27.53 3.5 27.22 36.71 30.87 36.71 31.76 30.53 42.97"/><polygon class="cls-20" points="30.23 42.65 3.5 27.22 9.97 15.44 36.71 30.87 30.23 42.65"/><polygon class="cls-3" points="43.18 42.65 69.92 27.22 69.68 27.75 42.94 43.18 43.18 42.65"/><polygon class="cls-21" points="36.71 1.32 36.71 29.55 61.16 15.44 36.71 1.32"/><polygon class="cls-5" points="34.86 28.49 36.71 29.55 38.56 28.49 36.71 27.42 34.86 28.49"/><polygon class="cls-22" points="12.26 15.43 36.71 19.23 45.89 24.25 36.71 29.55 12.26 15.43"/></g></g></svg>