<svg id="Layer_1" data-name="Layer 1" xmlns="http://www.w3.org/2000/svg" viewBox="0 0 16.13 21"><defs><style>.cls-1{fill:#b7b7b7;}</style></defs><title>Information doc</title><g id="page"><path id="Path_20" data-name="Path 20" class="cls-1" d="M929.52,1200.66h0a.49.49,0,0,0-.36-.15h-7.73a2.5,2.5,0,0,0-2.5,2.5h0v16a2.5,2.5,0,0,0,2.5,2.5h11.13a2.5,2.5,0,0,0,2.5-2.5v-12.61a.52.52,0,0,0-.15-.36Zm.14,1.55,3.71,3.7h-2.21a1.5,1.5,0,0,1-1.5-1.5Zm2.91,18.3H921.43a1.5,1.5,0,0,1-1.5-1.5h0v-16a1.5,1.5,0,0,1,1.5-1.5h7.23v2.9a2.5,2.5,0,0,0,2.5,2.5h2.9V1219a1.5,1.5,0,0,1-1.49,1.5Z" transform="translate(-918.93 -1200.5)"/><path id="Path_21" data-name="Path 21" class="cls-1" d="M922.14,1210.15h5.4a.5.5,0,0,0,0-1h-5.4a.5.5,0,1,0,0,1Z" transform="translate(-918.93 -1200.5)"/><path id="Path_22" data-name="Path 22" class="cls-1" d="M931.87,1212.93h-9.73a.5.5,0,0,0,0,1h9.73a.5.5,0,0,0,0-1Z" transform="translate(-918.93 -1200.5)"/><path id="Path_23" data-name="Path 23" class="cls-1" d="M931.87,1216.71h-9.73a.5.5,0,1,0,0,1h9.73a.5.5,0,0,0,0-1Z" transform="translate(-918.93 -1200.5)"/></g></svg>