<svg id="Layer_1" data-name="Layer 1" xmlns="http://www.w3.org/2000/svg" xmlns:xlink="http://www.w3.org/1999/xlink" viewBox="0 0 197.96 61.77"><defs><style>.cls-1{fill:#1d488e;}.cls-2{fill:url(#linear-gradient);}.cls-3{fill:url(#linear-gradient-2);}.cls-4{fill:url(#linear-gradient-3);}.cls-5{fill:url(#linear-gradient-4);}.cls-6{fill:url(#linear-gradient-5);}.cls-7{fill:url(#linear-gradient-6);}.cls-8{fill:url(#linear-gradient-7);}.cls-9{fill:url(#linear-gradient-8);}.cls-10{fill:url(#linear-gradient-9);}.cls-11{fill:url(#linear-gradient-10);}.cls-12{fill:url(#linear-gradient-11);}.cls-13{fill:url(#linear-gradient-12);}.cls-14{fill:url(#linear-gradient-13);}</style><linearGradient id="linear-gradient" x1="818.5" y1="1138.43" x2="831.84" y2="1138.43" gradientUnits="userSpaceOnUse"><stop offset="0" stop-color="#1d488e" stop-opacity="0.9"/><stop offset="0.01" stop-color="#2f5696" stop-opacity="0.91"/><stop offset="0.03" stop-color="#5777a9" stop-opacity="0.93"/><stop offset="0.06" stop-color="#7d94bb" stop-opacity="0.94"/><stop offset="0.09" stop-color="#9daeca" stop-opacity="0.96"/><stop offset="0.12" stop-color="#b7c3d6" stop-opacity="0.97"/><stop offset="0.15" stop-color="#cdd5e1" stop-opacity="0.98"/><stop offset="0.19" stop-color="#dee2e9" stop-opacity="0.99"/><stop offset="0.24" stop-color="#e9ebee"/><stop offset="0.31" stop-color="#f0f1f1"/><stop offset="0.51" stop-color="#f2f2f2"/><stop offset="0.7" stop-color="#f0f1f1"/><stop offset="0.77" stop-color="#e9ebee"/><stop offset="0.81" stop-color="#dee2e9" stop-opacity="0.99"/><stop offset="0.85" stop-color="#cdd5e1" stop-opacity="0.98"/><stop offset="0.89" stop-color="#b7c3d6" stop-opacity="0.97"/><stop offset="0.92" stop-color="#9daeca" stop-opacity="0.96"/><stop offset="0.94" stop-color="#7d94bb" stop-opacity="0.94"/><stop offset="0.97" stop-color="#5777a9" stop-opacity="0.93"/><stop offset="0.99" stop-color="#2f5696" stop-opacity="0.91"/><stop offset="1" stop-color="#1d488e" stop-opacity="0.9"/></linearGradient><linearGradient id="linear-gradient-2" x1="844.68" y1="1131.51" x2="852.73" y2="1131.51" gradientUnits="userSpaceOnUse"><stop offset="0" stop-color="#1d488e"/><stop offset="0.01" stop-color="#2c5495"/><stop offset="0.03" stop-color="#5575a8"/><stop offset="0.06" stop-color="#7b93ba"/><stop offset="0.08" stop-color="#9badc9"/><stop offset="0.11" stop-color="#b7c3d6"/><stop offset="0.15" stop-color="#cdd4e0"/><stop offset="0.19" stop-color="#dee2e8"/><stop offset="0.24" stop-color="#e9ebee"/><stop offset="0.31" stop-color="#f0f1f1"/><stop offset="0.51" stop-color="#f2f2f2"/><stop offset="0.7" stop-color="#f0f1f1"/><stop offset="0.77" stop-color="#e9ebee"/><stop offset="0.82" stop-color="#dee2e8"/><stop offset="0.85" stop-color="#cdd4e0"/><stop offset="0.89" stop-color="#b7c3d6"/><stop offset="0.92" stop-color="#9badc9"/><stop offset="0.95" stop-color="#7b93ba"/><stop offset="0.97" stop-color="#5575a8"/><stop offset="0.99" stop-color="#2c5495"/><stop offset="1" stop-color="#1d488e"/></linearGradient><linearGradient id="linear-gradient-3" x1="843.09" y1="1147.95" x2="853.38" y2="1147.95" xlink:href="#linear-gradient-2"/><linearGradient id="linear-gradient-4" x1="876.2" y1="1169.93" x2="884.13" y2="1162.01" gradientUnits="userSpaceOnUse"><stop offset="0" stop-color="#1d488e"/><stop offset="0.05" stop-color="#4c6ea4"/><stop offset="0.1" stop-color="#7891b9"/><stop offset="0.16" stop-color="#9eafca"/><stop offset="0.22" stop-color="#bcc7d9"/><stop offset="0.28" stop-color="#d4dae4"/><stop offset="0.35" stop-color="#e5e8ec"/><stop offset="0.42" stop-color="#efeff1"/><stop offset="0.51" stop-color="#f2f2f2"/><stop offset="0.62" stop-color="#eff0f1"/><stop offset="0.69" stop-color="#e7e9ed"/><stop offset="0.75" stop-color="#d8dde6"/><stop offset="0.8" stop-color="#c3ccdc"/><stop offset="0.85" stop-color="#a8b7cf"/><stop offset="0.9" stop-color="#869cbf"/><stop offset="0.94" stop-color="#5e7cad"/><stop offset="0.98" stop-color="#325898"/><stop offset="1" stop-color="#1d488e"/></linearGradient><linearGradient id="linear-gradient-5" x1="881.59" y1="1116.95" x2="886.85" y2="1116.95" xlink:href="#linear-gradient"/><linearGradient id="linear-gradient-6" x1="880.24" y1="1137.09" x2="887.59" y2="1134.98" gradientUnits="userSpaceOnUse"><stop offset="0" stop-color="#1d488e"/><stop offset="0.08" stop-color="#4568a1"/><stop offset="0.23" stop-color="#8fa3c3"/><stop offset="0.36" stop-color="#c4cedd"/><stop offset="0.46" stop-color="#e5e8ec"/><stop offset="0.51" stop-color="#f2f2f2"/><stop offset="0.7" stop-color="#f0f1f1"/><stop offset="0.77" stop-color="#e9ebee"/><stop offset="0.82" stop-color="#dee2e8"/><stop offset="0.85" stop-color="#cdd4e0"/><stop offset="0.89" stop-color="#b7c3d6"/><stop offset="0.92" stop-color="#9badc9"/><stop offset="0.95" stop-color="#7b93ba"/><stop offset="0.97" stop-color="#5575a8"/><stop offset="0.99" stop-color="#2c5495"/><stop offset="1" stop-color="#1d488e"/></linearGradient><linearGradient id="linear-gradient-7" x1="898.76" y1="1154.25" x2="921.96" y2="1126.6" gradientUnits="userSpaceOnUse"><stop offset="0" stop-color="#1d488e"/><stop offset="0.05" stop-color="#4669a1"/><stop offset="0.1" stop-color="#748db7"/><stop offset="0.16" stop-color="#9aacc9"/><stop offset="0.22" stop-color="#bac5d8"/><stop offset="0.29" stop-color="#d3d9e3"/><stop offset="0.35" stop-color="#e4e7ec"/><stop offset="0.42" stop-color="#efeff0"/><stop offset="0.51" stop-color="#f2f2f2"/><stop offset="0.6" stop-color="#eff0f1"/><stop offset="0.67" stop-color="#e6e8ec"/><stop offset="0.74" stop-color="#d6dce5"/><stop offset="0.79" stop-color="#bfcada"/><stop offset="0.85" stop-color="#a2b2cd"/><stop offset="0.9" stop-color="#7f96bc"/><stop offset="0.95" stop-color="#5574a8"/><stop offset="0.99" stop-color="#254e92"/><stop offset="1" stop-color="#1d488e"/></linearGradient><linearGradient id="linear-gradient-8" x1="914.66" y1="1158.23" x2="927.13" y2="1139.74" xlink:href="#linear-gradient-7"/><linearGradient id="linear-gradient-9" x1="965.08" y1="1137.13" x2="965.08" y2="1162.72" gradientUnits="userSpaceOnUse"><stop offset="0" stop-color="#1d488e"/><stop offset="0.06" stop-color="#224c90"/><stop offset="0.13" stop-color="#315897"/><stop offset="0.2" stop-color="#496ba3"/><stop offset="0.28" stop-color="#6b86b3"/><stop offset="0.37" stop-color="#97a9c7"/><stop offset="0.45" stop-color="#ccd3e0"/><stop offset="0.51" stop-color="#f2f2f2"/><stop offset="0.57" stop-color="#c0cadb"/><stop offset="0.65" stop-color="#8fa3c4"/><stop offset="0.73" stop-color="#6682b0"/><stop offset="0.8" stop-color="#4669a1"/><stop offset="0.87" stop-color="#2f5797"/><stop offset="0.94" stop-color="#224c90"/><stop offset="1" stop-color="#1d488e"/></linearGradient><linearGradient id="linear-gradient-10" x1="942.09" y1="1143" x2="968.57" y2="1143" gradientUnits="userSpaceOnUse"><stop offset="0" stop-color="#1d488e" stop-opacity="0.9"/><stop offset="0.01" stop-color="#2f5696" stop-opacity="0.91"/><stop offset="0.03" stop-color="#5777a9" stop-opacity="0.93"/><stop offset="0.06" stop-color="#7d94bb" stop-opacity="0.94"/><stop offset="0.09" stop-color="#9daeca" stop-opacity="0.96"/><stop offset="0.12" stop-color="#b7c3d6" stop-opacity="0.97"/><stop offset="0.15" stop-color="#cdd5e1" stop-opacity="0.98"/><stop offset="0.19" stop-color="#dee2e9" stop-opacity="0.99"/><stop offset="0.24" stop-color="#e9ebee"/><stop offset="0.31" stop-color="#f0f1f1"/><stop offset="0.51" stop-color="#f2f2f2"/><stop offset="0.58" stop-color="#d6dce5" stop-opacity="0.99"/><stop offset="0.75" stop-color="#8fa3c4" stop-opacity="0.95"/><stop offset="1" stop-color="#1f4a8f" stop-opacity="0.9"/><stop offset="1" stop-color="#1d488e" stop-opacity="0.9"/></linearGradient><linearGradient id="linear-gradient-11" x1="856.18" y1="1159.43" x2="865.78" y2="1149.84" gradientUnits="userSpaceOnUse"><stop offset="0" stop-color="#1d488e" stop-opacity="0.9"/><stop offset="0.07" stop-color="#4266a0" stop-opacity="0.92"/><stop offset="0.23" stop-color="#8da1c3" stop-opacity="0.95"/><stop offset="0.36" stop-color="#c4cddc" stop-opacity="0.98"/><stop offset="0.46" stop-color="#e5e8ec" stop-opacity="0.99"/><stop offset="0.51" stop-color="#f2f2f2"/><stop offset="0.62" stop-color="#eff0f1"/><stop offset="0.69" stop-color="#e7e9ed" stop-opacity="0.99"/><stop offset="0.75" stop-color="#d8dde6" stop-opacity="0.99"/><stop offset="0.8" stop-color="#c3cddc" stop-opacity="0.98"/><stop offset="0.85" stop-color="#a9b7d0" stop-opacity="0.97"/><stop offset="0.9" stop-color="#889dc0" stop-opacity="0.95"/><stop offset="0.94" stop-color="#607eae" stop-opacity="0.93"/><stop offset="0.98" stop-color="#345a99" stop-opacity="0.91"/><stop offset="1" stop-color="#1d488e" stop-opacity="0.9"/></linearGradient><linearGradient id="linear-gradient-12" x1="775.3" y1="1154.42" x2="798.5" y2="1126.78" xlink:href="#linear-gradient-7"/><linearGradient id="linear-gradient-13" x1="791.2" y1="1158.4" x2="803.67" y2="1139.91" xlink:href="#linear-gradient-7"/></defs><title>Main Logo</title><path class="cls-1" d="M838.85,1136.54a21.57,21.57,0,0,0-2.28-.73,12,12,0,0,0-3-.33,6,6,0,0,0-4.66,1.79q-1.62,1.79-1.62,6v21h-2.52a7.37,7.37,0,0,1-4.85-1.49,5.31,5.31,0,0,1-1.8-4.33v-16.81a19.36,19.36,0,0,1,.74-5.33,12.34,12.34,0,0,1,2.37-4.56,12.1,12.1,0,0,1,4.2-3.19,14.35,14.35,0,0,1,6.19-1.22,10.1,10.1,0,0,1,3.54.55,6.72,6.72,0,0,1,2.33,1.4,5.28,5.28,0,0,1,1.29,1.92,5.84,5.84,0,0,1,.41,2.1v3.24Z" transform="translate(-775.58 -1114.35)"/><path class="cls-1" d="M872.86,1151.78a13.68,13.68,0,0,1-1,5.33,11.85,11.85,0,0,1-2.84,4.14,12.88,12.88,0,0,1-4.37,2.66,15.86,15.86,0,0,1-5.57.94h-1.86a19.29,19.29,0,0,1-6-.87,14.8,14.8,0,0,1-4.65-2.4,10.33,10.33,0,0,1-4-8.3,10.87,10.87,0,0,1,.94-4.54,9.1,9.1,0,0,1,3.08-3.62,16.33,16.33,0,0,1,5.62-2.41,35.65,35.65,0,0,1,8.52-.87h3.18v-.46q0-3.87-1.9-5.29t-5.94-1.42a21.09,21.09,0,0,0-4.38.41,16.53,16.53,0,0,0-3.36,1.06,12.37,12.37,0,0,0-2.4,1.4,9.2,9.2,0,0,0-1.47,1.34h-.34v-2.91a7.51,7.51,0,0,1,.71-3.08,8.16,8.16,0,0,1,2.31-2.91,12.13,12.13,0,0,1,4.14-2.13,20.3,20.3,0,0,1,6.11-.81,21.65,21.65,0,0,1,5.86.78,12.34,12.34,0,0,1,4.91,2.66,13.15,13.15,0,0,1,3.41,5,21.23,21.23,0,0,1,1.27,7.89Zm-8.87-3.44h-3.24a25.87,25.87,0,0,0-4.3.3,8.73,8.73,0,0,0-2.75.87,3.22,3.22,0,0,0-1.42,1.46,4.71,4.71,0,0,0-.4,2,3.9,3.9,0,0,0,1.62,3.36,7.87,7.87,0,0,0,4.66,1.18q5.82,0,5.82-5.62Z" transform="translate(-775.58 -1114.35)"/><path class="cls-1" d="M890.92,1164a13.62,13.62,0,0,1-.91,5.11,10.48,10.48,0,0,1-2.58,3.82,11.29,11.29,0,0,1-3.94,2.37,14.49,14.49,0,0,1-4.91.81,6.94,6.94,0,0,1-4.3-1.21,3.58,3.58,0,0,1-1.59-2.93v-3.31l1.21,0q.74,0,1.51-.1l1.69-.13a5.45,5.45,0,0,0,3.31-1.4,5,5,0,0,0,1.42-3.9v-34.6h2.58a6.82,6.82,0,0,1,4.78,1.59,6,6,0,0,1,1.74,4.7Zm.86-44.4a5.27,5.27,0,0,1-1.52,3.77,4.9,4.9,0,0,1-3.67,1.59,5.42,5.42,0,0,1-5.36-5.36,5,5,0,0,1,1.59-3.71,5.21,5.21,0,0,1,3.77-1.55,5,5,0,0,1,3.67,1.55,5.12,5.12,0,0,1,1.52,3.7Z" transform="translate(-775.58 -1114.35)"/><path class="cls-1" d="M898.86,1146.66a25,25,0,0,1,1.16-7.73,18,18,0,0,1,3.46-6.27,16.38,16.38,0,0,1,5.69-4.23,18.52,18.52,0,0,1,7.79-1.55,17,17,0,0,1,7.34,1.52,16.15,16.15,0,0,1,5.41,4.09,18.09,18.09,0,0,1,3.36,5.89,21.13,21.13,0,0,1,1.16,7,24.38,24.38,0,0,1-1.19,7.73,18.54,18.54,0,0,1-3.46,6.25,16,16,0,0,1-5.66,4.2,18.68,18.68,0,0,1-7.79,1.54,16.79,16.79,0,0,1-7.34-1.54,16.54,16.54,0,0,1-5.41-4.07,17.69,17.69,0,0,1-3.36-5.86A21,21,0,0,1,898.86,1146.66Zm25.94,0q0-5.49-2.1-8.58t-6.57-3.09a6.61,6.61,0,0,0-5.89,2.91,13.19,13.19,0,0,0-2,7.48q0,5.46,2.07,8.52T917,1157a6.6,6.6,0,0,0,5.92-2.91A13.17,13.17,0,0,0,924.8,1146.66Z" transform="translate(-775.58 -1114.35)"/><path class="cls-1" d="M971.09,1164.26a6.81,6.81,0,0,1-4.85-1.69,5.6,5.6,0,0,1-1.8-4.27v-14.49q0-4.7-1.92-6.8a7,7,0,0,0-5.46-2.1,6,6,0,0,0-4.8,2.13,9.09,9.09,0,0,0-1.82,6.07v21.14h-2.71a6.39,6.39,0,0,1-4.65-1.69,5.7,5.7,0,0,1-1.74-4.27v-15.78a17.08,17.08,0,0,1,1-5.72,14.9,14.9,0,0,1,3-5,14.31,14.31,0,0,1,5.11-3.56,18.64,18.64,0,0,1,7.39-1.34,17.56,17.56,0,0,1,6.09,1,14,14,0,0,1,5,3.11,15,15,0,0,1,3.39,5.08,17.73,17.73,0,0,1,1.26,6.88v21.27Z" transform="translate(-775.58 -1114.35)"/><path class="cls-1" d="M775.58,1146.66a25,25,0,0,1,1.15-7.73,18,18,0,0,1,3.46-6.27,16.38,16.38,0,0,1,5.69-4.23,18.52,18.52,0,0,1,7.79-1.55,17,17,0,0,1,7.34,1.52,16.15,16.15,0,0,1,5.41,4.09,18.09,18.09,0,0,1,3.36,5.89,21.13,21.13,0,0,1,1.16,7,24.38,24.38,0,0,1-1.19,7.73,18.54,18.54,0,0,1-3.46,6.25,16,16,0,0,1-5.66,4.2,18.68,18.68,0,0,1-7.79,1.54,16.79,16.79,0,0,1-7.34-1.54,16.54,16.54,0,0,1-5.41-4.07,17.69,17.69,0,0,1-3.36-5.86A21,21,0,0,1,775.58,1146.66Zm25.94,0q0-5.49-2.1-8.58t-6.57-3.09a6.61,6.61,0,0,0-5.89,2.91,13.19,13.19,0,0,0-2,7.48q0,5.46,2.07,8.52t6.6,3.06a6.6,6.6,0,0,0,5.92-2.91,13.17,13.17,0,0,0,1.92-7.38Z" transform="translate(-775.58 -1114.35)"/><path class="cls-2" d="M818.51,1149.14c-.06,0,.13-2.68.23-7.1a29.3,29.3,0,0,1,.12-3.26,13,13,0,0,1,2.21-6.05,11.77,11.77,0,0,1,3.73-3.38,13.84,13.84,0,0,1,7-1.63,15.89,15.89,0,0,0-2.53.36,18,18,0,0,0-2.68.76,11.66,11.66,0,0,0-5.09,4.21,13,13,0,0,0-1.9,4.37,27.6,27.6,0,0,0-.52,4.32c-.15,1.86-.15,2.75-.37,5.27C818.67,1147.81,818.56,1149.14,818.51,1149.14Z" transform="translate(-775.58 -1114.35)"/><path class="cls-3" d="M844.7,1135.14a4.86,4.86,0,0,1,.58-2.15,8.19,8.19,0,0,1,1.86-2.49,9.42,9.42,0,0,1,2.49-1.62,10.5,10.5,0,0,1,3.1-1s-.38.13-1.08.42a14.81,14.81,0,0,0-2.6,1.31,9.42,9.42,0,0,0-2,1.72,11.35,11.35,0,0,0-1.38,2C845,1134.47,844.77,1135.17,844.7,1135.14Z" transform="translate(-775.58 -1114.35)"/><path class="cls-4" d="M843.13,1153a7,7,0,0,1,.35-2.84,9.3,9.3,0,0,1,1.92-3.43,10.64,10.64,0,0,1,4-2.72,15.19,15.19,0,0,1,4-1.18s-.77.18-1.92.59a14.79,14.79,0,0,0-3.06,1.42,10.4,10.4,0,0,0-2.39,2,8.7,8.7,0,0,0-1.75,2.75c-.2.54-.5,1.5-.76,2.34A4.71,4.71,0,0,1,843.13,1153Z" transform="translate(-775.58 -1114.35)"/><path class="cls-5" d="M875.56,1169.28s.78,0,1.77-.2a7.33,7.33,0,0,0,2.11-.6,5.44,5.44,0,0,0,2.2-1.9,6.41,6.41,0,0,0,.93-2.7,16.85,16.85,0,0,0,.16-2.33,9.18,9.18,0,0,1,0-1,5.54,5.54,0,0,1,.14,1,11.29,11.29,0,0,1,0,2,7.2,7.2,0,0,1-.57,2.58,5,5,0,0,1-3.64,3,8,8,0,0,1-2.08.23A4.31,4.31,0,0,1,875.56,1169.28Z" transform="translate(-775.58 -1114.35)"/><path class="cls-6" d="M881.61,1119.28a4.22,4.22,0,0,1,.52-2,4.78,4.78,0,0,1,2.27-2.27,4.59,4.59,0,0,1,2.44-.29,4.94,4.94,0,0,0-1.22.15,4.4,4.4,0,0,0-1.67.76,4.69,4.69,0,0,0-.74.72,6.93,6.93,0,0,0-.85,1.23A15,15,0,0,0,881.61,1119.28Z" transform="translate(-775.58 -1114.35)"/><path class="cls-7" d="M882.25,1144.09q-.09,0,0-14.61V1129a.05.05,0,0,1,0-.05l.48,0a14.41,14.41,0,0,1,2.07,0,4.53,4.53,0,0,1,1,.16,4.26,4.26,0,0,1-.84,0c-1.07,0-1.34,0-1.66,0a6.77,6.77,0,0,0-.74.11C882.47,1139.16,882.31,1144.1,882.25,1144.09Z" transform="translate(-775.58 -1114.35)"/><path class="cls-8" d="M905.2,1159.52a16.68,16.68,0,0,1-3.51-5.57,19.6,19.6,0,0,1-1.28-7.22,23.63,23.63,0,0,1,1.15-7.55,17,17,0,0,1,3.35-5.93,15,15,0,0,1,5.4-3.87,18.26,18.26,0,0,1,7.29-1.38,16.8,16.8,0,0,1,6.23,1.18,15.08,15.08,0,0,1,3.52,2l-.18-.16a15,15,0,0,0-4-2.32,16.8,16.8,0,0,0-6.23-1.18,18.26,18.26,0,0,0-7.29,1.38,15,15,0,0,0-5.4,3.87,17,17,0,0,0-3.35,5.93,23.63,23.63,0,0,0-1.15,7.55,19.6,19.6,0,0,0,1.28,7.22,16.68,16.68,0,0,0,3.51,5.57q.52.54,1.09,1l.46.36Q905.65,1160,905.2,1159.52Z" transform="translate(-775.58 -1114.35)"/><path class="cls-9" d="M917.42,1158.12a7.6,7.6,0,0,0,6.23-2.84q2.3-2.84,2.3-8.55,0-5.95-2.29-9a7.79,7.79,0,0,0-1.38-1.27,8.23,8.23,0,0,1,.68.75q2.39,3,2.39,9,0,5.64-2.3,8.45a7.63,7.63,0,0,1-6.23,2.81,8.77,8.77,0,0,1-5.18-1.45,7.08,7.08,0,0,0,2.13,1.44A9.81,9.81,0,0,0,917.42,1158.12Z" transform="translate(-775.58 -1114.35)"/><path class="cls-10" d="M965.55,1158.84v-14.49q0-4.7-1.92-6.8c-.14-.15-.28-.29-.43-.42q1.88,2.11,1.88,6.75v14.49a5.59,5.59,0,0,0,1.8,4.27l.09.08A5.6,5.6,0,0,1,965.55,1158.84Z" transform="translate(-775.58 -1114.35)"/><path class="cls-11" d="M968.23,1131.54a13.22,13.22,0,0,0-4.73-3,16.25,16.25,0,0,0-5.78-1,17.29,17.29,0,0,0-7,1.31,13.57,13.57,0,0,0-4.85,3.47,14.64,14.64,0,0,0-2.83,4.91,17.11,17.11,0,0,0-.94,5.59v15.41c0,.11,0,.23,0,.34q0-.85,0-1.72c.07-2.44.21-4.75.4-6.85v-6.72a17.11,17.11,0,0,1,.94-5.59,14.64,14.64,0,0,1,2.83-4.91,13.57,13.57,0,0,1,4.85-3.47,17.29,17.29,0,0,1,7-1.31,16.25,16.25,0,0,1,5.78,1,13.22,13.22,0,0,1,4.63,2.94Z" transform="translate(-775.58 -1114.35)"/><path class="cls-12" d="M854,1157.27s.63.29,1.33.5a7.05,7.05,0,0,0,2.2.26,7.81,7.81,0,0,0,3.44-.53,5.46,5.46,0,0,0,2-1.38,5.94,5.94,0,0,0,1.33-2.87,10.36,10.36,0,0,0,.14-2.93c-.06-1.15-.23-2-.17-2a6.64,6.64,0,0,1,.43,1.72,8.87,8.87,0,0,1,0,3.47,7.22,7.22,0,0,1-.79,2.1,5.17,5.17,0,0,1-3.49,2.64,7.8,7.8,0,0,1-3.34.18,7.66,7.66,0,0,1-2.44-.78A3,3,0,0,1,854,1157.27Z" transform="translate(-775.58 -1114.35)"/><path class="cls-13" d="M781.74,1159.69a16.68,16.68,0,0,1-3.51-5.57,19.6,19.6,0,0,1-1.28-7.22,23.63,23.63,0,0,1,1.15-7.55,17,17,0,0,1,3.35-5.93,15,15,0,0,1,5.4-3.87,18.26,18.26,0,0,1,7.29-1.38,16.8,16.8,0,0,1,6.23,1.18,15.08,15.08,0,0,1,3.52,2l-.18-.16a15,15,0,0,0-4-2.32,16.8,16.8,0,0,0-6.23-1.18,18.26,18.26,0,0,0-7.29,1.38,15,15,0,0,0-5.4,3.87,17,17,0,0,0-3.35,5.93,23.63,23.63,0,0,0-1.15,7.55,19.6,19.6,0,0,0,1.28,7.22,16.68,16.68,0,0,0,3.51,5.57q.52.54,1.09,1l.46.36Q782.19,1160.15,781.74,1159.69Z" transform="translate(-775.58 -1114.35)"/><path class="cls-14" d="M794,1158.3a7.6,7.6,0,0,0,6.23-2.84q2.3-2.84,2.3-8.55,0-5.95-2.29-9a7.79,7.79,0,0,0-1.38-1.27,8.23,8.23,0,0,1,.68.75q2.39,3,2.39,9,0,5.64-2.3,8.45a7.63,7.63,0,0,1-6.23,2.81,8.77,8.77,0,0,1-5.18-1.45,7.08,7.08,0,0,0,2.13,1.44A9.81,9.81,0,0,0,794,1158.3Z" transform="translate(-775.58 -1114.35)"/></svg>