<svg id="Layer_1" data-name="Layer 1" xmlns="http://www.w3.org/2000/svg" viewBox="0 0 18.52 18.52"><defs><style>.cls-1{fill:#45b261;}</style></defs><title>profile verified</title><g id="checked"><g id="Group_3" data-name="Group 3"><g id="Group_2" data-name="Group 2"><path id="Path_1" data-name="Path 1" class="cls-1" d="M933.73,1144.53a.7.7,0,0,0-1,0l-8.37,8.35-3-3.28a.7.7,0,1,0-1.1.86l.07.08,3.51,3.82a.7.7,0,0,0,.5.22h0a.7.7,0,0,0,.49-.2l8.89-8.86a.7.7,0,0,0,0-1Z" transform="translate(-915.74 -1142)"/></g></g><g id="Group_5" data-name="Group 5"><g id="Group_4" data-name="Group 4"><path id="Path_2" data-name="Path 2" class="cls-1" d="M933.56,1150.56a.7.7,0,0,0-.7.7h0a7.86,7.86,0,1,1-7.86-7.86h0a.7.7,0,0,0,0-1.4,9.26,9.26,0,1,0,9.26,9.26h0A.7.7,0,0,0,933.56,1150.56Z" transform="translate(-915.74 -1142)"/></g></g></g></svg>