<svg id="Layer_1" data-name="Layer 1" xmlns="http://www.w3.org/2000/svg" viewBox="0 0 19 19"><title>review</title><g id="pie-chart"><g id="Group_15" data-name="Group 15"><g id="Group_14" data-name="Group 14"><path id="Path_13" data-name="Path 13" d="M871.91,963.09V955.3h-.56a8.35,8.35,0,1,0,8.35,8.35h0v-.56Zm-.56,7.79a7.24,7.24,0,0,1-.56-14.45v7.77h7.77A7.25,7.25,0,0,1,871.35,970.89Z" transform="translate(-863 -953)"/></g></g><g id="Group_17" data-name="Group 17"><g id="Group_16" data-name="Group 16"><path id="Path_14" data-name="Path 14" d="M879.55,955.45a8.3,8.3,0,0,0-5.9-2.45h-.56v8.91H882v-.56A8.3,8.3,0,0,0,879.55,955.45Zm-5.35,5.35v-6.66a7.25,7.25,0,0,1,6.66,6.66Z" transform="translate(-863 -953)"/></g></g></g></svg>