<svg id="Layer_1" data-name="Layer 1" xmlns="http://www.w3.org/2000/svg" viewBox="0 0 16.17 19.01"><title>User Basic Information</title><g id="avatar"><g id="Group_11" data-name="Group 11"><path id="Path_6" data-name="Path 6" d="M877,991.24h.13a3.63,3.63,0,0,0,2.77-1.2c1.51-1.71,1.26-4.64,1.24-4.91a4,4,0,0,0-1.91-3.57,4.37,4.37,0,0,0-2.12-.55h-.07a4.38,4.38,0,0,0-2.12.54,4,4,0,0,0-1.93,3.58c0,.28-.28,3.21,1.24,4.91A3.62,3.62,0,0,0,877,991.24Zm-3-6v0c.13-2.82,2.13-3.12,3-3.12h0c1.06,0,2.87.46,3,3.12a.08.08,0,0,0,0,0s.28,2.7-1,4.11a2.58,2.58,0,0,1-2,.84h0a2.57,2.57,0,0,1-2-.84C873.79,987.93,874.05,985.24,874.06,985.22Z" transform="translate(-869 -981)"/><path id="Path_7" data-name="Path 7" d="M885.16,996.09h0V996c0-.78-.08-2.6-1.78-3.18h0a11.35,11.35,0,0,1-3.27-1.49.53.53,0,0,0-.61.87,12.25,12.25,0,0,0,3.59,1.64c.92.33,1,1.31,1,2.2a.79.79,0,0,0,0,.1,7.14,7.14,0,0,1-.08,1.22,15.71,15.71,0,0,1-13.88,0,6.76,6.76,0,0,1-.08-1.22V996c0-.9.13-1.88,1-2.2a12.37,12.37,0,0,0,3.59-1.64.53.53,0,0,0-.61-.87h0a11.23,11.23,0,0,1-3.27,1.49h0c-1.71.59-1.76,2.41-1.78,3.18a.79.79,0,0,1,0,.1h0a6,6,0,0,0,.2,1.78.51.51,0,0,0,.2.25,16.62,16.62,0,0,0,15.36,0,.53.53,0,0,0,.2-.25A6.33,6.33,0,0,0,885.16,996.09Z" transform="translate(-869 -981)"/></g></g></svg>